PathFileType	4	(X/Y/Z)	Kaydara	
DataRate	CameraRate	NumFrames	NumMarkers	Units	OrigDataRate	OrigDataStartFrame	OrigNumFrames	
60.00	60.00	4	74	mm	60.00	1184	141	
Frame#	Time	Z_lasi			Z_rasi			Z_rpsi			Z_lpsi			Z_fneck			Z_bneck			Z_fhead			Z_rhead			Z_lhead			Z_rshld			Z_relbtop			Z_relbext			Z_relblow			Z_rwrext			Z_rwrtop			Z_rwrlow			Z_lshld			Z_lelbext			Z_lelblow			Z_lelbtop			Z_lwrext			Z_lwrtop			Z_lwrlow			Z_rtopleg			Z_ltopleg			Z_rkneefr			Z_rkneebk			Z_rkneeis			Z_lkneefr			Z_lknssbk			Z_lkneeis			Z_rankfr			Z_rankis			Z_rankbk			Z_lankfr			Z_lankbk			Z_lankis			A_lasi			A_rasi			A_rpsi			A_lpsi			A_fneck			A_bneck			A_fhead			A_rhead			A_lhead			A_rshld			A_relbtop			A_relbext			A_relblow			A_rwrext			A_rwrtop			A_rwrlow			A_lshld			A_lelbext			A_lelblow			A_lelbtop			A_lwrext			A_lwrtop			A_lwrlow			A_rtopleg			A_ltopleg			A_rkneefr			A_rkneebk			A_rkneeis			A_lkneefr			A_lknssbk			A_lkneeis			A_rankfr			A_rankis			A_rankbk			A_lankfr			A_lankbk			A_lankis			
		X1	Y1	Z1	X2	Y2	Z2	X3	Y3	Z3	X4	Y4	Z4	X5	Y5	Z5	X6	Y6	Z6	X7	Y7	Z7	X8	Y8	Z8	X9	Y9	Z9	X10	Y10	Z10	X11	Y11	Z11	X12	Y12	Z12	X13	Y13	Z13	X14	Y14	Z14	X15	Y15	Z15	X16	Y16	Z16	X17	Y17	Z17	X18	Y18	Z18	X19	Y19	Z19	X20	Y20	Z20	X21	Y21	Z21	X22	Y22	Z22	X23	Y23	Z23	X24	Y24	Z24	X25	Y25	Z25	X26	Y26	Z26	X27	Y27	Z27	X28	Y28	Z28	X29	Y29	Z29	X30	Y30	Z30	X31	Y31	Z31	X32	Y32	Z32	X33	Y33	Z33	X34	Y34	Z34	X35	Y35	Z35	X36	Y36	Z36	X37	Y37	Z37	X38	Y38	Z38	X39	Y39	Z39	X40	Y40	Z40	X41	Y41	Z41	X42	Y42	Z42	X43	Y43	Z43	X44	Y44	Z44	X45	Y45	Z45	X46	Y46	Z46	X47	Y47	Z47	X48	Y48	Z48	X49	Y49	Z49	X50	Y50	Z50	X51	Y51	Z51	X52	Y52	Z52	X53	Y53	Z53	X54	Y54	Z54	X55	Y55	Z55	X56	Y56	Z56	X57	Y57	Z57	X58	Y58	Z58	X59	Y59	Z59	X60	Y60	Z60	X61	Y61	Z61	X62	Y62	Z62	X63	Y63	Z63	X64	Y64	Z64	X65	Y65	Z65	X66	Y66	Z66	X67	Y67	Z67	X68	Y68	Z68	X69	Y69	Z69	X70	Y70	Z70	X71	Y71	Z71	X72	Y72	Z72	X73	Y73	Z73	X74	Y74	Z74	

124	19.717	-229.26933	1081.40747	686.46523	-294.95768	1091.29684	490.18917	-130.65305	1112.80579	397.34844	-44.45835	1097.18140	627.07745	-219.64399	1433.43826	572.27959	-134.55412	1521.97296	567.92519	-379.50874	1548.50174	565.08354	-254.57542	1643.94699	504.97845	-251.34556	1622.10358	651.79367	-181.12354	1438.20709	356.81904	-156.51237	1117.81776	274.00959	-128.50519	1100.01793	326.03928	-220.56957	1129.28871	315.76651	-260.36160	893.20488	285.86178	-290.37235	907.03529	318.40771	-263.32218	900.72983	351.61339	-102.53523	1441.82739	745.43831	-76.21676	1122.77588	754.24706	-134.33734	1146.82007	818.18871	-65.48272	1142.37976	822.22122	-217.33854	897.01683	807.83997	-205.41719	888.29857	852.83897	-160.21002	881.16463	843.53905	-188.05058	924.46526	355.98320	-140.10721	895.37506	718.67729	-248.25130	421.46816	407.77748	-180.61039	451.64341	354.06406	-183.70838	430.02293	477.74319	-188.44715	447.30278	683.73093	-83.91481	473.20122	663.22952	-184.75603	442.75734	590.73639	-206.18462	179.93069	378.53004	-181.66943	174.85041	440.46600	-129.97876	173.03032	369.85390	-123.66204	164.11482	677.12685	-70.57623	166.59527	615.46608	-150.51756	173.85416	610.02758	-969.66507	1034.45801	467.59815	-956.93954	1039.84940	626.81568	-1114.42101	1033.24951	649.35440	-1092.72423	1039.31213	466.62586	-1040.71045	1376.42151	567.21355	-1178.64464	1409.62128	556.88316	-980.17960	1584.16153	583.45032	-1132.92152	1554.35593	657.12357	-1122.08481	1558.24356	494.13223	-1109.52744	1345.02151	740.47745	-1007.72949	1084.96422	776.75819	-1058.00034	1047.89513	793.78670	-1027.07253	1069.27025	725.51888	-841.42738	986.08383	651.02455	-849.02603	1025.39719	628.51044	-880.08934	1009.96819	609.22638	-1073.60855	1355.66299	390.12642	-1022.04559	1049.28139	336.04313	-992.79762	1073.19016	402.06646	-978.04276	1068.51700	349.48647	-920.41298	887.16347	483.12382	-885.97702	886.96548	459.58824	-875.45341	915.58334	493.31787	-1052.61131	875.17372	729.32175	-1025.15976	889.72198	391.85490	-1019.32205	450.80460	638.35438	-1126.16844	487.72141	683.76213	-1106.62643	486.50414	565.52105	-1005.97267	464.08939	506.13476	-1091.78932	480.93117	411.33183	-1113.38623	481.08631	535.42610	-1097.04956	166.33331	662.99797	-1130.21500	163.38476	597.03255	-1178.14514	156.12444	666.44836	-1065.69580	166.70803	455.95238	-1126.90536	169.06406	420.61203	-1125.02335	174.80358	510.13145 
125	19.733	-227.81826	1081.58714	686.50261	-293.66224	1091.70265	490.49648	-129.19216	1112.50183	397.74750	-43.37247	1096.72539	627.70641	-218.48339	1429.95361	573.83942	-137.87622	1522.43362	569.42062	-384.57893	1533.03818	566.15803	-265.64945	1637.87735	508.89961	-261.51747	1613.02277	655.24467	-179.68386	1438.17688	357.46468	-154.85837	1117.90611	274.31868	-126.81897	1100.07187	326.21494	-218.81508	1129.39049	316.01505	-258.84813	893.28148	286.14786	-288.84390	907.14844	318.66289	-261.85204	901.01479	351.85234	-101.51443	1441.75522	745.86555	-74.50364	1122.60071	754.69559	-132.59552	1146.64673	818.57521	-63.75309	1142.12318	822.73376	-217.05145	897.51678	807.98714	-205.12712	888.73169	852.96638	-159.95582	881.32500	843.56415	-187.36805	924.39926	356.51035	-139.90396	895.29549	719.20174	-248.30431	421.47118	408.19057	-180.60921	451.65440	354.42970	-183.89986	429.99516	478.10783	-188.73024	447.33246	684.17770	-84.19109	473.05840	663.73695	-184.88594	442.75944	591.16718	-206.20237	179.94749	378.64822	-181.72075	174.81855	440.57827	-129.96655	173.06786	370.00061	-123.70919	164.05144	677.21931	-70.66821	166.55170	615.69180	-150.62137	173.81872	610.19390	-969.75807	1034.61220	467.79667	-957.13860	1040.01930	627.03953	-1114.57939	1032.89566	649.34166	-1092.81494	1039.07234	466.59191	-1041.80183	1375.97183	567.24834	-1179.27177	1410.03891	556.87149	-979.33113	1582.84439	582.69554	-1132.31911	1554.93286	656.52718	-1121.52924	1557.89001	493.63220	-1110.23048	1343.90015	740.64056	-1005.98526	1082.61185	774.70039	-1056.36223	1046.84654	793.26233	-1027.93411	1066.30699	724.23500	-847.64908	965.56511	648.65875	-853.01895	1005.11414	625.36602	-885.69633	991.46530	606.01036	-1074.65897	1355.43045	390.21057	-1020.91019	1049.34853	336.28216	-992.59918	1073.64693	402.69165	-977.12242	1068.99834	350.26409	-919.55719	888.81004	485.42301	-884.58519	888.86749	462.43568	-875.05363	917.91183	496.00903	-1052.49725	875.09621	729.34769	-1024.84276	889.69711	391.95869	-1019.03580	450.77015	638.47843	-1125.91476	487.69241	683.77632	-1106.27686	486.52752	565.46646	-1005.77438	464.04175	506.24382	-1091.47026	480.93643	411.41113	-1113.10776	481.06258	535.51331	-1096.98952	166.33383	663.05389	-1130.09048	163.40710	597.04849	-1178.12988	156.16961	666.46317	-1065.62279	166.69235	455.94837	-1126.86043	169.08409	420.65399	-1124.90280	174.81087	510.17044 
126	19.750	-226.42233	1081.77155	686.75705	-292.19816	1092.13867	490.75397	-127.53431	1112.19528	398.06816	-42.24818	1096.24580	628.26744	-218.12210	1426.02798	571.57692	-141.69139	1522.34360	571.09730	-388.65555	1517.69714	567.22763	-276.53757	1630.98419	512.66193	-271.01986	1603.44528	658.34862	-178.84838	1438.18192	358.29628	-153.13316	1118.09891	274.43575	-125.06450	1100.18974	326.39111	-217.07994	1129.48929	316.36312	-256.91469	893.40851	286.32687	-286.96161	907.35703	318.76568	-259.99897	901.11214	352.17243	-101.01740	1441.64536	746.29486	-72.72340	1122.43263	755.19653	-130.82145	1146.46057	819.20517	-61.73306	1141.92856	823.18565	-216.48409	898.15353	807.99667	-204.50666	889.12521	853.07686	-159.35811	881.51947	843.34801	-186.36574	924.35944	356.86859	-139.59214	895.28076	719.75639	-248.40414	421.47266	408.57910	-180.62889	451.70052	354.77562	-183.52163	429.73244	478.07522	-188.60933	447.21218	684.41597	-84.54872	472.95834	664.36264	-185.22041	442.73167	591.65310	-206.16423	179.94360	378.76339	-181.79798	174.80526	440.72655	-129.95656	173.08359	370.15011	-123.78471	163.97560	677.32857	-70.73178	166.57259	615.84438	-150.70843	173.79843	610.36663	-969.84993	1034.78409	467.98512	-957.32834	1040.15656	627.24735	-1114.74670	1032.49596	649.35326	-1092.88498	1038.80333	466.61121	-1042.88002	1375.54535	567.29881	-1179.84459	1410.63705	556.80187	-978.32733	1581.29776	582.04357	-1131.55739	1555.54443	656.22688	-1120.87776	1557.71667	493.21346	-1110.92178	1342.86346	740.67421	-1004.26735	1080.63576	771.84517	-1054.66438	1045.95657	792.49359	-1028.75130	1063.87772	722.64870	-854.63760	947.56546	646.10756	-857.94632	986.86302	622.22672	-891.94870	975.51277	603.95206	-1075.65147	1355.17075	390.28214	-1019.63928	1049.36783	336.45950	-992.44972	1073.95317	403.33706	-976.27853	1069.49051	351.07464	-919.19807	890.22980	488.94112	-883.48640	890.74852	465.30598	-874.77997	920.18875	498.68576	-1052.31865	875.01686	729.41963	-1024.51447	889.64775	392.03217	-1018.81279	450.76656	638.60363	-1125.70923	487.71603	683.86513	-1105.91347	486.52813	565.49313	-1005.56572	464.00238	506.40743	-1091.20934	480.91961	411.48697	-1112.80479	481.04027	535.60970	-1096.90659	166.31500	663.07533	-1130.01488	163.42226	597.09953	-1178.06213	156.20848	666.48613	-1065.55786	166.65758	455.98938	-1126.78177	169.10086	420.69504	-1124.85497	174.80427	510.23010 
127	19.767	-225.10164	1081.99905	687.01645	-290.55988	1092.54410	490.96519	-125.68303	1111.83655	398.38879	-41.01562	1095.73471	628.79108	-220.25923	1423.95111	570.80101	-145.86429	1521.83502	572.87548	-392.25365	1503.00049	568.19489	-286.93806	1623.48984	516.03447	-280.10763	1593.57620	661.23947	-178.58685	1438.19550	359.32625	-151.16305	1118.43445	274.54733	-123.19170	1100.53696	326.40678	-215.09346	1129.64333	316.63555	-254.66425	893.53920	286.45351	-284.91741	907.55516	318.76995	-258.19138	901.33804	352.35657	-101.39769	1441.47797	747.03026	-70.63852	1122.22496	755.79033	-128.59500	1146.18568	819.67789	-59.54078	1141.72569	823.71323	-215.55767	898.50388	808.00247	-203.56552	889.52652	852.89215	-158.65695	881.51649	843.29041	-185.43783	924.23599	357.41428	-139.41141	895.14893	720.20714	-248.54633	421.51340	408.95119	-180.69508	451.75854	355.11665	-184.33672	429.90505	478.71422	-189.08976	447.15912	685.06767	-84.90460	472.88383	664.90997	-185.60678	442.74681	592.18605	-206.18546	179.93996	378.90240	-181.82718	174.76437	440.82256	-129.93459	173.10947	370.28435	-123.93641	163.87501	677.47917	-70.85359	166.55468	616.11614	-150.83397	173.75385	610.49671	-969.81773	1034.98268	468.12260	-957.47833	1040.24292	627.36412	-1114.86900	1032.15820	649.35898	-1092.90504	1038.60085	466.62266	-1043.95973	1375.09720	567.27364	-1180.43823	1411.49979	556.77010	-977.38007	1579.73480	581.55800	-1130.62317	1556.21521	656.09642	-1120.45631	1557.76764	493.12950	-1111.46164	1341.94946	740.74379	-1002.70676	1078.56728	768.27049	-1053.41476	1045.30563	792.07550	-1030.06264	1061.30249	720.94757	-862.33917	932.64526	644.08401	-863.93799	971.25816	618.74035	-899.29214	961.12419	601.64940	-1076.62979	1354.87244	390.23693	-1018.65097	1049.31763	336.68709	-992.55226	1074.16771	404.00745	-975.67390	1069.83688	351.92421	-918.39622	891.80161	490.56293	-882.67517	892.44919	468.13789	-874.68369	922.24342	501.37661	-1052.10373	874.96292	729.49303	-1024.23508	889.62097	392.10365	-1018.65585	450.73505	638.66505	-1125.53917	487.72202	683.94554	-1105.67039	486.54709	565.57014	-1005.37880	463.96187	506.52325	-1091.01357	480.94170	411.57360	-1112.57996	481.04477	535.69355	-1096.85471	166.32854	663.10356	-1129.96353	163.44196	597.15069	-1178.04062	156.26877	666.51535	-1065.49538	166.64133	456.01242	-1126.75987	169.11480	420.73254	-1124.75449	174.78348	510.23670 
